# xmcd
#
# Track frame offsets:
#	150
#	13145
#	25375
#	37640
#	53215
#	66820
#	82175
#	98715
#	112710
#	120790
#	135470
#	147005
#	165905
#	178220
#	188565
#	205825
#
# Disc length: 2954 seconds
#
# Revision: 1
# Processed by: cddbd v1.5.2PL0 Copyright (c) Steve Scherf et al.
# Submitted via: EasyCDDAExtractor 11.9.9.666
#
DISCID=c30b8810
DTITLE=Pentti Kunnarin Tanssiorkesteri - Tanssit tavaksi
DYEAR=1994
DGENRE=Retro
TTITLE0=Valssaaja konepajalla
TTITLE1=Metsälinna
TTITLE2=Taitoin kaikki maailman kukkaset
TTITLE3=Kolmekymppinen
TTITLE4=Vieras rannalla
TTITLE5=On hetki
TTITLE6=Marleena
TTITLE7=Natasha
TTITLE8=Takaisin paluu
TTITLE9=Tahiti
TTITLE10=Trumpetti-tango
TTITLE11=On elonretki näin
TTITLE12=Pilan laskija
TTITLE13=Tuohinen sormus
TTITLE14=Silmät niinkuin mantelit
TTITLE15=Ystävällinen trumpetti
EXTD=
EXTT0=
EXTT1=
EXTT2=
EXTT3=
EXTT4=
EXTT5=
EXTT6=
EXTT7=
EXTT8=
EXTT9=
EXTT10=
EXTT11=
EXTT12=
EXTT13=
EXTT14=
EXTT15=
PLAYORDER=
